<svg width="41" height="40" viewBox="0 0 41 40" fill="none" xmlns="http://www.w3.org/2000/svg">
<path d="M1 4C1 2.067 2.567 0.5 4.5 0.5H36.5C38.433 0.5 40 2.067 40 4V36C40 37.933 38.433 39.5 36.5 39.5H4.5C2.567 39.5 1 37.933 1 36V4Z" stroke="#BEBEBE"/>
<path d="M16.1667 24.6667C16.1667 25.4 16.7667 26 17.5 26H22.8333C23.5667 26 24.1667 25.4 24.1667 24.6667V16.6667H16.1667V24.6667ZM17.5 18H22.8333V24.6667H17.5V18ZM22.5 14.6667L21.8333 14H18.5L17.8333 14.6667H15.5V16H24.8333V14.6667H22.5Z" fill="#323232"/>
</svg>
